<svg width="565" height="598" viewBox="0 0 565 598" fill="none" xmlns="http://www.w3.org/2000/svg">
<g clip-path="url(#clip0_2_2)">
<g filter="url(#filter0_f_2_2)">
<path d="M461.018 541.761C393.118 586.356 315.488 586.953 238.039 596.593C268.502 537.548 309.041 458.343 376.941 413.747C444.841 369.152 518.706 361.657 541.923 397.007C565.14 432.357 528.918 497.165 461.018 541.761Z" fill="black" fill-opacity="0.31"/>
</g>
<g filter="url(#filter1_d_2_2)">
<path d="M463 259C463 386.025 336.5 488 233 597.5C135 507 3 386.025 3 259C3 131.975 105.975 29 233 29C360.025 29 463 131.975 463 259Z" fill="#FF832B"/>
<path d="M463 259C463 386.025 336.5 488 233 597.5C135 507 3 386.025 3 259C3 131.975 105.975 29 233 29C360.025 29 463 131.975 463 259Z" stroke="black" stroke-width="2"/>
</g>
<ellipse cx="233" cy="259.161" rx="181" ry="183.161" fill="white"/>
<path d="M336.509 187.039H327.581V171.17C327.582 153.955 313.626 140 296.412 140H170.588C153.373 140 139.418 153.955 139.418 171.17V187.039H130.49C126.906 187.039 124 189.944 124 193.529V229.481C124 233.066 126.906 235.972 130.49 235.972H139.418V313.466C135.946 316.579 133.76 321.098 133.76 326.128V338.139C133.76 347.529 141.371 355.141 150.761 355.141H152.865V372.235C152.865 374.997 155.105 377.236 157.867 377.236H180.87C183.632 377.236 185.87 374.997 185.87 372.235V355.141H281.13V372.235C281.13 374.997 283.368 377.236 286.131 377.236H309.133C311.895 377.236 314.135 374.997 314.135 372.235V355.141H316.239C325.628 355.141 333.24 347.529 333.24 338.139V326.128C333.24 321.098 331.054 316.579 327.582 313.466V235.971H336.51C340.094 235.971 343 233.065 343 229.481V193.529C342.999 189.944 340.094 187.039 336.509 187.039ZM308.307 189.575V266.272H242.001V189.575H308.307ZM200.441 156.252H266.559C271.149 156.252 274.871 159.973 274.871 164.564C274.871 169.154 271.15 172.876 266.559 172.876H200.441C195.851 172.876 192.129 169.154 192.129 164.564C192.129 159.973 195.851 156.252 200.441 156.252ZM158.693 189.575H224.999V266.272H158.693V189.575ZM188.37 300.489C188.37 305.007 184.695 308.681 180.176 308.681H166.654C162.143 308.681 158.469 305.006 158.469 300.489V291.372C158.469 286.853 162.143 283.179 166.654 283.179H180.176C184.695 283.179 188.37 286.853 188.37 291.372V300.489ZM278.631 300.489V291.372C278.631 286.853 282.305 283.179 286.824 283.179H300.346C304.857 283.179 308.531 286.853 308.531 291.372V300.489C308.531 305.007 304.857 308.681 300.346 308.681H286.824C282.306 308.682 278.631 305.006 278.631 300.489Z" fill="#FF832B"/>
</g>
<defs>
<filter id="filter0_f_2_2" x="223.039" y="359.711" width="340.908" height="251.882" filterUnits="userSpaceOnUse" color-interpolation-filters="sRGB">
<feFlood flood-opacity="0" result="BackgroundImageFix"/>
<feBlend mode="normal" in="SourceGraphic" in2="BackgroundImageFix" result="shape"/>
<feGaussianBlur stdDeviation="7.5" result="effect1_foregroundBlur_2_2"/>
</filter>
<filter id="filter1_d_2_2" x="-8" y="23" width="482" height="590.905" filterUnits="userSpaceOnUse" color-interpolation-filters="sRGB">
<feFlood flood-opacity="0" result="BackgroundImageFix"/>
<feColorMatrix in="SourceAlpha" type="matrix" values="0 0 0 0 0 0 0 0 0 0 0 0 0 0 0 0 0 0 127 0" result="hardAlpha"/>
<feOffset dy="5"/>
<feGaussianBlur stdDeviation="5"/>
<feComposite in2="hardAlpha" operator="out"/>
<feColorMatrix type="matrix" values="0 0 0 0 0 0 0 0 0 0 0 0 0 0 0 0 0 0 0.25 0"/>
<feBlend mode="normal" in2="BackgroundImageFix" result="effect1_dropShadow_2_2"/>
<feBlend mode="normal" in="SourceGraphic" in2="effect1_dropShadow_2_2" result="shape"/>
</filter>
<clipPath id="clip0_2_2">
<rect width="565" height="598" fill="white"/>
</clipPath>
</defs>
</svg>
